<svg width="78" height="24" viewBox="0 0 78 24" fill="none" xmlns="http://www.w3.org/2000/svg">
<path d="M2.32031 21L0.290039 2.09375H3.98535L5.02734 14.0283L6.09082 2.09375H9.61426L10.624 14.0283L11.6338 2.09375H15.3721L13.3096 21H8.77637L7.83105 11.9014L6.92871 21H2.32031ZM16.4141 3.89844V0.697266H20.2598V3.89844H16.4141ZM16.4141 21V4.88672H20.2598V21H16.4141ZM21.7852 21V4.88672H25.6309V6.93848C25.7741 6.32259 26.0391 5.7998 26.4258 5.37012C26.8197 4.93327 27.3639 4.71484 28.0586 4.71484C29.1758 4.71484 29.985 5.05859 30.4863 5.74609C30.9948 6.43359 31.249 7.37533 31.249 8.57129V21H27.457V8.96875C27.457 8.65365 27.3926 8.36361 27.2637 8.09863C27.1348 7.8265 26.9128 7.69043 26.5977 7.69043C26.304 7.69043 26.0856 7.79427 25.9424 8.00195C25.8063 8.20247 25.7204 8.45671 25.6846 8.76465C25.6488 9.06543 25.6309 9.36621 25.6309 9.66699V21H21.7852ZM37.1035 23.793C36.3587 23.793 35.7178 23.7536 35.1807 23.6748C34.6507 23.6032 34.1745 23.4707 33.752 23.2773C33.3294 23.084 32.9069 22.8118 32.4844 22.4609L33.7842 20.2373C34.7223 20.7959 35.6605 21.0752 36.5986 21.0752C37.2145 21.0752 37.6729 20.8783 37.9736 20.4844C38.2744 20.0905 38.4248 19.5785 38.4248 18.9482V17.3691C38.1169 18.472 37.2969 19.0234 35.9648 19.0234C35.1986 19.0234 34.5791 18.8408 34.1064 18.4756C33.6338 18.1104 33.29 17.6162 33.0752 16.9932C32.8604 16.3701 32.7529 15.6755 32.7529 14.9092V9.11914C32.7529 8.2526 32.846 7.48991 33.0322 6.83105C33.2184 6.16504 33.5443 5.64583 34.0098 5.27344C34.4753 4.90104 35.127 4.71484 35.9648 4.71484C36.6738 4.71484 37.2253 4.89388 37.6191 5.25195C38.0202 5.61003 38.2887 6.09342 38.4248 6.70215V4.88672H42.3457V18.7012C42.3457 20.5273 41.9232 21.8307 41.0781 22.6113C40.2402 23.3991 38.9154 23.793 37.1035 23.793ZM37.5225 16.123C38.124 16.123 38.4248 15.5788 38.4248 14.4902V9.01172C38.4248 8.7181 38.3389 8.41732 38.167 8.10938C38.0023 7.80143 37.7731 7.64746 37.4795 7.64746C37.1071 7.64746 36.8743 7.78711 36.7812 8.06641C36.6882 8.33854 36.6416 8.65365 36.6416 9.01172V14.4902C36.6416 14.877 36.6882 15.2458 36.7812 15.5967C36.8815 15.9476 37.1286 16.123 37.5225 16.123ZM48.2646 21.1719C45.085 21.1719 43.4951 19.5605 43.4951 16.3379V15.0596H47.3623V16.9502C47.3623 17.3154 47.4339 17.6019 47.5771 17.8096C47.7204 18.0173 47.9495 18.1211 48.2646 18.1211C48.8232 18.1211 49.1025 17.7021 49.1025 16.8643C49.1025 16.1624 48.9557 15.6396 48.6621 15.2959C48.3685 14.945 48.0104 14.6084 47.5879 14.2861L45.5361 12.707C44.8916 12.2057 44.401 11.6758 44.0645 11.1172C43.7279 10.5586 43.5596 9.78158 43.5596 8.78613C43.5596 7.8623 43.778 7.09961 44.2148 6.49805C44.6589 5.89648 45.2425 5.44889 45.9658 5.15527C46.6963 4.86165 47.484 4.71484 48.3291 4.71484C51.4515 4.71484 53.0127 6.27246 53.0127 9.3877V9.68848H49.0381V9.07617C49.0381 8.75391 48.9808 8.44238 48.8662 8.1416C48.7588 7.84082 48.5439 7.69043 48.2217 7.69043C47.6774 7.69043 47.4053 7.97689 47.4053 8.5498C47.4053 9.12988 47.6344 9.58464 48.0928 9.91406L50.4775 11.6543C51.2223 12.1914 51.8454 12.8288 52.3467 13.5664C52.8551 14.304 53.1094 15.2852 53.1094 16.5098C53.1094 18.028 52.6761 19.1846 51.8096 19.9795C50.9502 20.7744 49.7686 21.1719 48.2646 21.1719ZM54.3555 21V2.09375H61.918V5.77832H58.1582V8.78613H61.7246V12.4277H58.1582V21H54.3555ZM63.0781 21V2.09375H66.9883V21H63.0781ZM68.2236 23.6855V21.2471H70.0713C70.3506 21.2471 70.4902 21.1504 70.4902 20.957C70.4902 20.8568 70.4795 20.7529 70.458 20.6455L67.9336 4.88672H71.6182L72.6924 16.7461L73.96 4.88672H77.666L74.6797 21.8379C74.5723 22.4466 74.3646 22.9049 74.0566 23.2129C73.7559 23.528 73.2581 23.6855 72.5635 23.6855H68.2236Z" fill="#363636"/>
</svg>
